<svg xmlns="http://www.w3.org/2000/svg" width="256" height="256" viewBox="0 0 256 256"><defs><pattern id="c" width="64" height="64" patternUnits="userSpaceOnUse"><rect width="64" height="64" fill="#082f3c"/><path d="M0 14c13-8 23 8 35 0s20 7 29-1M0 34c13-8 23 8 35 0s20 7 29-1M0 54c13-8 23 8 35 0s20 7 29-1" fill="none" stroke="#28b9ca" stroke-width="4"/><path d="M0 12c13-8 23 8 35 0s20 7 29-1M0 32c13-8 23 8 35 0s20 7 29-1M0 52c13-8 23 8 35 0s20 7 29-1" fill="none" stroke="#83f5ed" stroke-width="1.5"/><circle cx="12" cy="43" r="2" fill="#d6ffff"/><circle cx="48" cy="22" r="2" fill="#d6ffff"/></pattern></defs><rect width="256" height="256" fill="url(#c)"/><g stroke="#031b26" stroke-width="3" opacity=".7"><path d="M64 0v256M128 0v256M192 0v256M0 64h256M0 128h256M0 192h256"/></g></svg>