<svg xmlns="http://www.w3.org/2000/svg" width="256" height="256" viewBox="0 0 256 256" shape-rendering="crispEdges">
  <defs>
    <g id="downBase"><rect x="23" y="11" width="18" height="7" fill="#29282b"/><rect x="20" y="15" width="24" height="7" fill="#353238"/><rect x="23" y="19" width="18" height="13" fill="#d4aa79"/><rect x="26" y="22" width="3" height="3" fill="#312d2c"/><rect x="35" y="22" width="3" height="3" fill="#312d2c"/><rect x="20" y="30" width="24" height="20" fill="#405777"/><rect x="22" y="46" width="20" height="7" fill="#334864"/><rect x="19" y="30" width="26" height="5" fill="#c7863d"/><rect x="24" y="39" width="16" height="4" fill="#a7a19a"/><rect x="30" y="39" width="4" height="4" fill="#d0b166"/><rect x="23" y="51" width="8" height="9" fill="#4b3427"/><rect x="34" y="51" width="8" height="9" fill="#4b3427"/><rect x="22" y="58" width="10" height="4" fill="#2e2825"/><rect x="34" y="58" width="10" height="4" fill="#2e2825"/></g>
    <g id="leftBase"><rect x="24" y="11" width="17" height="7" fill="#29282b"/><rect x="20" y="15" width="21" height="7" fill="#353238"/><rect x="22" y="19" width="17" height="13" fill="#d4aa79"/><rect x="21" y="23" width="3" height="3" fill="#312d2c"/><rect x="18" y="25" width="6" height="3" fill="#b87b5a"/><rect x="22" y="30" width="22" height="20" fill="#405777"/><rect x="22" y="46" width="20" height="7" fill="#334864"/><rect x="20" y="29" width="23" height="5" fill="#c7863d"/><rect x="24" y="39" width="16" height="4" fill="#a7a19a"/><rect x="23" y="51" width="8" height="9" fill="#4b3427"/><rect x="35" y="51" width="8" height="9" fill="#4b3427"/><rect x="20" y="58" width="12" height="4" fill="#2e2825"/><rect x="35" y="58" width="10" height="4" fill="#2e2825"/></g>
    <g id="rightBase"><rect x="23" y="11" width="17" height="7" fill="#29282b"/><rect x="23" y="15" width="21" height="7" fill="#353238"/><rect x="25" y="19" width="17" height="13" fill="#d4aa79"/><rect x="40" y="23" width="3" height="3" fill="#312d2c"/><rect x="40" y="25" width="6" height="3" fill="#b87b5a"/><rect x="20" y="30" width="22" height="20" fill="#405777"/><rect x="22" y="46" width="20" height="7" fill="#334864"/><rect x="21" y="29" width="23" height="5" fill="#c7863d"/><rect x="24" y="39" width="16" height="4" fill="#a7a19a"/><rect x="21" y="51" width="8" height="9" fill="#4b3427"/><rect x="33" y="51" width="8" height="9" fill="#4b3427"/><rect x="19" y="58" width="10" height="4" fill="#2e2825"/><rect x="32" y="58" width="12" height="4" fill="#2e2825"/></g>
    <g id="upBase"><rect x="22" y="11" width="20" height="9" fill="#29282b"/><rect x="20" y="16" width="24" height="10" fill="#353238"/><rect x="24" y="25" width="16" height="5" fill="#b88e65"/><rect x="20" y="29" width="24" height="21" fill="#405777"/><rect x="22" y="46" width="20" height="7" fill="#334864"/><rect x="19" y="29" width="26" height="5" fill="#c7863d"/><rect x="24" y="39" width="16" height="4" fill="#a7a19a"/><rect x="23" y="51" width="8" height="9" fill="#4b3427"/><rect x="34" y="51" width="8" height="9" fill="#4b3427"/><rect x="22" y="58" width="10" height="4" fill="#2e2825"/><rect x="34" y="58" width="10" height="4" fill="#2e2825"/></g>

    <g id="down0"><use href="#downBase"/><rect x="12" y="31" width="8" height="7" fill="#d4aa79"/><rect x="44" y="38" width="9" height="6" fill="#d4aa79"/></g>
    <g id="down1"><use href="#downBase"/><rect x="9" y="35" width="12" height="6" fill="#d4aa79"/><rect x="44" y="31" width="12" height="6" fill="#d4aa79"/><rect x="18" y="49" width="8" height="5" fill="#405777"/></g>
    <g id="down2"><use href="#downBase"/><rect x="14" y="42" width="12" height="6" fill="#d4aa79"/><rect x="41" y="24" width="8" height="15" fill="#d4aa79"/><rect x="20" y="48" width="8" height="6" fill="#405777"/></g>
    <g id="down3"><use href="#downBase"/><rect x="18" y="28" width="6" height="17" fill="#d4aa79"/><rect x="40" y="43" width="14" height="6" fill="#d4aa79"/></g>

    <g id="left0"><use href="#leftBase"/><rect x="16" y="27" width="8" height="8" fill="#d4aa79"/><rect x="40" y="38" width="7" height="12" fill="#b98f65"/></g>
    <g id="left1"><use href="#leftBase"/><rect x="8" y="31" width="17" height="7" fill="#d4aa79"/><rect x="38" y="34" width="7" height="14" fill="#b98f65"/><rect x="21" y="47" width="8" height="6" fill="#405777"/></g>
    <g id="left2"><use href="#leftBase"/><rect x="5" y="38" width="21" height="7" fill="#d4aa79"/><rect x="38" y="29" width="7" height="14" fill="#b98f65"/><rect x="20" y="45" width="8" height="8" fill="#405777"/></g>
    <g id="left3"><use href="#leftBase"/><rect x="11" y="45" width="16" height="6" fill="#d4aa79"/><rect x="38" y="26" width="7" height="13" fill="#b98f65"/></g>

    <g id="right0"><use href="#rightBase"/><rect x="40" y="27" width="8" height="8" fill="#d4aa79"/><rect x="17" y="38" width="7" height="12" fill="#b98f65"/></g>
    <g id="right1"><use href="#rightBase"/><rect x="39" y="31" width="17" height="7" fill="#d4aa79"/><rect x="19" y="34" width="7" height="14" fill="#b98f65"/><rect x="35" y="47" width="8" height="6" fill="#405777"/></g>
    <g id="right2"><use href="#rightBase"/><rect x="38" y="38" width="21" height="7" fill="#d4aa79"/><rect x="19" y="29" width="7" height="14" fill="#b98f65"/><rect x="36" y="45" width="8" height="8" fill="#405777"/></g>
    <g id="right3"><use href="#rightBase"/><rect x="37" y="45" width="16" height="6" fill="#d4aa79"/><rect x="19" y="26" width="7" height="13" fill="#b98f65"/></g>

    <g id="up0"><use href="#upBase"/><rect x="16" y="37" width="8" height="12" fill="#b98f65"/><rect x="40" y="29" width="8" height="12" fill="#b98f65"/></g>
    <g id="up1"><use href="#upBase"/><rect x="12" y="31" width="14" height="7" fill="#b98f65"/><rect x="39" y="25" width="10" height="13" fill="#b98f65"/><rect x="21" y="47" width="8" height="6" fill="#405777"/></g>
    <g id="up2"><use href="#upBase"/><rect x="16" y="24" width="10" height="16" fill="#b98f65"/><rect x="38" y="31" width="14" height="7" fill="#b98f65"/><rect x="36" y="47" width="8" height="6" fill="#405777"/></g>
    <g id="up3"><use href="#upBase"/><rect x="20" y="22" width="7" height="18" fill="#b98f65"/><rect x="42" y="38" width="10" height="7" fill="#b98f65"/></g>
  </defs>
  <use href="#down0" x="0" y="0"/><use href="#down1" x="64" y="0"/><use href="#down2" x="128" y="0"/><use href="#down3" x="192" y="0"/>
  <use href="#left0" x="0" y="64"/><use href="#left1" x="64" y="64"/><use href="#left2" x="128" y="64"/><use href="#left3" x="192" y="64"/>
  <use href="#right0" x="0" y="128"/><use href="#right1" x="64" y="128"/><use href="#right2" x="128" y="128"/><use href="#right3" x="192" y="128"/>
  <use href="#up0" x="0" y="192"/><use href="#up1" x="64" y="192"/><use href="#up2" x="128" y="192"/><use href="#up3" x="192" y="192"/>
</svg>