<svg xmlns="http://www.w3.org/2000/svg" width="128" height="128" viewBox="0 0 128 128" shape-rendering="crispEdges"><ellipse cx="64" cy="117" rx="43" ry="9" fill="#1f221d" opacity=".36"/><path d="M37 41L25 25L43 31L49 16L61 32L76 15L82 32L103 24L91 44Z" fill="#5e694a"/><rect x="40" y="39" width="48" height="30" fill="#58634b"/><rect x="48" y="47" width="9" height="7" fill="#e1c36e"/><rect x="71" y="47" width="9" height="7" fill="#e1c36e"/><path d="M30 68H98L108 97L91 114H37L20 97Z" fill="#4f6045"/><rect x="13" y="65" width="18" height="42" fill="#48543f"/><rect x="97" y="65" width="18" height="42" fill="#48543f"/><path d="M20 70L8 58M24 83L7 83M108 70L120 58M104 83L121 83" stroke="#73583d" stroke-width="6"/><rect x="41" y="106" width="18" height="11" fill="#3b4337"/><rect x="69" y="106" width="18" height="11" fill="#3b4337"/><path d="M49 72H79L85 94L64 105L43 94Z" fill="#63774e"/><path d="M55 78L64 70L73 78L70 92H58Z" fill="#c19b59"/><rect x="61" y="74" width="6" height="15" fill="#ead178"/></svg>