<svg xmlns="http://www.w3.org/2000/svg" width="128" height="128" viewBox="0 0 128 128" shape-rendering="crispEdges"><ellipse cx="64" cy="118" rx="47" ry="8" fill="#10150f" opacity=".48"/><path d="M34 42L16 20L42 30L47 6L61 30L78 5L83 30L111 18L93 44Z" fill="#395033"/><path d="M38 38L28 24L47 31L51 15L62 33L76 14L81 32L99 25L90 44Z" fill="#7b8b58"/><rect x="39" y="39" width="50" height="31" fill="#506746"/><path d="M43 43H85L80 63H48Z" fill="#26382b"/><rect x="47" y="46" width="11" height="8" fill="#f7db75"/><rect x="70" y="46" width="11" height="8" fill="#f7db75"/><path d="M27 67H101L112 97L93 116H35L16 97Z" fill="#465d3e"/><path d="M35 69H93L88 103L64 113L40 103Z" fill="#5e754e"/><path d="M48 72H80L87 94L64 107L41 94Z" fill="#30482f"/><path d="M54 78L64 66L74 78L70 95H58Z" fill="#d2ad60"/><rect x="60" y="71" width="9" height="20" fill="#f8df83"/><rect x="63" y="74" width="3" height="14" fill="#fff6b5"/><path d="M27 65L13 57L8 67L20 75L7 84L15 94L28 84Z" fill="#3d5037"/><path d="M101 65L115 57L120 67L108 75L121 84L113 94L100 84Z" fill="#3d5037"/><path d="M20 68L7 52M24 83L4 83M108 68L121 52M104 83L124 83" stroke="#7e5d3d" stroke-width="6"/><rect x="39" y="107" width="20" height="11" fill="#2d392c"/><rect x="69" y="107" width="20" height="11" fill="#2d392c"/><circle cx="31" cy="42" r="4" fill="#ead175"/><circle cx="97" cy="42" r="4" fill="#ead175"/></svg>