<svg xmlns="http://www.w3.org/2000/svg" width="72" height="72" viewBox="0 0 72 72" shape-rendering="crispEdges"><ellipse cx="36" cy="62" rx="22" ry="5" fill="#171518" opacity=".4"/><path d="M19 27L27 18H45L53 27L50 49L36 57L22 49Z" fill="#4e4545"/><path d="M24 26L29 20H43L48 26L46 44L36 50L26 44Z" fill="#75605a"/><rect x="26" y="29" width="20" height="13" fill="#20262d"/><rect x="29" y="32" width="14" height="7" fill="#d65d35"/><rect x="32" y="34" width="8" height="3" fill="#ffb34f"/><path d="M18 30L8 35L12 45L22 42M54 30L64 35L60 45L50 42" fill="#353b42"/><path d="M23 48L16 55L25 58L31 51M49 48L56 55L47 58L41 51" fill="#3a3d42"/><path d="M30 18L34 11H38L42 18" fill="#b78d50"/><rect x="34" y="8" width="4" height="7" fill="#e3bb61"/><rect x="35" y="7" width="2" height="4" fill="#fff09b"/><path d="M13 35L5 30M59 35L67 30" stroke="#b06b45" stroke-width="3"/><path d="M28 45L22 51M44 45L50 51" stroke="#c37a48" stroke-width="2"/><rect x="32" y="53" width="8" height="5" fill="#292d32"/></svg>