<svg xmlns="http://www.w3.org/2000/svg" width="96" height="96" viewBox="0 0 96 96" shape-rendering="crispEdges"><ellipse cx="48" cy="89" rx="32" ry="6" fill="#121417" opacity=".48"/><path d="M30 24L36 14H60L67 24L63 45H33Z" fill="#343941"/><path d="M34 22L39 17H57L62 22L60 39H36Z" fill="#515966"/><rect x="37" y="26" width="23" height="9" fill="#1c2026"/><rect x="39" y="29" width="7" height="4" fill="#e4c25f"/><rect x="52" y="29" width="7" height="4" fill="#e4c25f"/><rect x="41" y="30" width="3" height="2" fill="#fff0a0"/><rect x="54" y="30" width="3" height="2" fill="#fff0a0"/><path d="M27 44H69L76 72L62 86H34L20 72Z" fill="#414852"/><path d="M32 47H64L68 70L58 80H38L28 70Z" fill="#5a626d"/><path d="M37 49H59L62 66L48 75L34 66Z" fill="#2c3239"/><rect x="39" y="50" width="19" height="5" fill="#b78345"/><rect x="43" y="52" width="11" height="2" fill="#e3bd69"/><path d="M27 47L15 52L13 77L26 84L33 70L31 51Z" fill="#333941"/><path d="M69 47L79 51L81 73L71 81L64 68L66 51Z" fill="#333941"/><rect x="35" y="79" width="12" height="9" fill="#282c32"/><rect x="51" y="79" width="12" height="9" fill="#282c32"/><path d="M36 86L30 92H47L47 86ZM62 86L68 92H51L51 86Z" fill="#1b1e23"/><path d="M70 44L82 34L87 39L76 54Z" fill="#805d3c"/><path d="M82 16H87V60H82Z" fill="#d6d2bf"/><path d="M83 17H85V57H83Z" fill="#fff8df"/><path d="M76 55L87 61L82 67L72 59Z" fill="#a77b46"/><path d="M29 38L22 31L28 28L34 36Z" fill="#727c87"/><path d="M67 38L74 31L68 28L62 36Z" fill="#727c87"/></svg>