<svg xmlns="http://www.w3.org/2000/svg" width="256" height="256" viewBox="0 0 256 256" shape-rendering="crispEdges"><circle cx="128" cy="128" r="99" fill="none" stroke="#657b52" stroke-width="10" opacity=".48"/><circle cx="128" cy="128" r="70" fill="none" stroke="#b89859" stroke-width="7" opacity=".72"/><circle cx="128" cy="128" r="42" fill="none" stroke="#879966" stroke-width="6"/><path d="M128 20L118 88L84 48L103 107L42 83L96 123L28 132L99 140L50 184L110 154L89 223L124 161L135 233L143 161L188 218L153 153L223 175L160 139L232 120L159 123L210 73L149 109L171 38L139 99Z" fill="#8c7548" opacity=".44"/><rect x="119" y="119" width="18" height="18" fill="#e1c672"/></svg>