<svg xmlns="http://www.w3.org/2000/svg" width="144" height="144" viewBox="0 0 144 144" shape-rendering="crispEdges"><ellipse cx="72" cy="132" rx="52" ry="8" fill="#3a2e24" opacity=".22"/><rect x="18" y="83" width="108" height="37" fill="#856b52"/><rect x="25" y="91" width="94" height="22" fill="#a18460"/><rect x="30" y="43" width="24" height="47" fill="#8f7558"/><rect x="91" y="33" width="24" height="58" fill="#8f7558"/><rect x="24" y="37" width="36" height="10" fill="#b0956c"/><rect x="85" y="27" width="36" height="10" fill="#b0956c"/><path d="M57 91V65Q57 47 72 45Q87 47 87 65V91Z" fill="#59483c"/><path d="M64 91V66Q64 56 72 55Q80 56 80 66V91Z" fill="#6f5945"/><rect x="36" y="58" width="11" height="8" fill="#6e5946"/><rect x="98" y="52" width="10" height="8" fill="#6e5946"/><rect x="13" y="117" width="118" height="8" fill="#6f5947"/></svg>